<?xml version="1.0" standalone="no"?><!DOCTYPE svg PUBLIC "-//W3C//DTD SVG 1.1//EN" "http://www.w3.org/Graphics/SVG/1.1/DTD/svg11.dtd"><svg t="1567338640551" class="icon" viewBox="0 0 1024 1024" version="1.1" xmlns="http://www.w3.org/2000/svg" p-id="6589" xmlns:xlink="http://www.w3.org/1999/xlink" width="200" height="200"><defs><style type="text/css"></style></defs><path d="M959 314c0 27.8-22.4 35.7-273.8 222.3-35.7 26.5-37.3 0-37.3 0V412.8c-220.3-3-275.7 101.5-348.4 234.6-22.4-211.2 50.7-434.3 348.4-432.2V79.4c-0.2 0.2 7.6-28.7 32.9-8.1C938.3 281.7 959.9 294.6 959 314z m-597.8-61.6H255.4c-63 0-80.2 19.7-80.2 79.6v371.5c0 67.6 24.1 79.6 80.2 79.6h374.4c62.1 0 80.2-18 80.2-79.6v-55.6c0-16.1 18.5-49.9 56.1-49.9 38.7 0 56 34 56 50v158.5c0 48.3-39.8 87.9-88.6 87.9H151.6c-48.7 0-88.2-39.2-88.6-87.9V229c0-48.3 39.8-87.9 88.6-87.9h210.1c25 0 49.8 25 49.8 49.4-0.1 53.1-26.2 61.9-50.3 61.9z" p-id="6590" fill="#13227a"></path></svg>