<?xml version="1.0" standalone="no"?><!DOCTYPE svg PUBLIC "-//W3C//DTD SVG 1.1//EN" "http://www.w3.org/Graphics/SVG/1.1/DTD/svg11.dtd"><svg t="1567340671823" class="icon" viewBox="0 0 1024 1024" version="1.1" xmlns="http://www.w3.org/2000/svg" p-id="41623" xmlns:xlink="http://www.w3.org/1999/xlink" width="200" height="200"><defs><style type="text/css"></style></defs><path d="M889.13 105h-269.2c-14.26 0-21.39 17.23-11.32 27.31l108.31 108.31L450.5 507a47 47 0 0 0 0 66.47 47 47 0 0 0 66.47 0l266.41-266.39 108.31 108.31c10.08 10.07 27.31 2.94 27.31-11.32v-269.2A29.87 29.87 0 0 0 889.13 105z" p-id="41624" fill="#13227a"></path><path d="M872 573a47 47 0 0 0-47 47v189a16 16 0 0 1-16 16H215a16 16 0 0 1-16-16V215a16 16 0 0 1 16-16h189a47 47 0 0 0 47-47 47 47 0 0 0-47-47H141a36 36 0 0 0-36 36v742a36 36 0 0 0 36 36h742a36 36 0 0 0 36-36V620a47 47 0 0 0-47-47z" p-id="41625" fill="#13227a"></path></svg>