<?xml version="1.0" standalone="no"?><!DOCTYPE svg PUBLIC "-//W3C//DTD SVG 1.1//EN" "http://www.w3.org/Graphics/SVG/1.1/DTD/svg11.dtd"><svg t="1567338498713" class="icon" viewBox="0 0 1106 1024" version="1.1" xmlns="http://www.w3.org/2000/svg" p-id="2730" xmlns:xlink="http://www.w3.org/1999/xlink" width="216.015625" height="200"><defs><style type="text/css"></style></defs><path d="M1099.597315 185.557047c-192.42953-96.214765-316.134228-13.744966-446.711409 219.919463l116.832215 68.724832c6.872483 6.872483 13.744966 13.744966 13.744966 20.61745v6.872483c0 6.872483-6.872483 6.872483-13.744966 13.744967l-343.624161 137.449664c-13.744966 0-27.489933-6.872483-34.362416-20.61745l-54.979866-364.24161c0-6.872483 0-20.61745 6.872483-27.489933 6.872483-6.872483 20.61745-6.872483 27.489933 0l123.704698 68.724832c137.449664-240.536913 323.006711-391.731544 604.778523-151.194631v27.489933z" p-id="2731" fill="#13227a"></path><path d="M879.677852 1024H219.919463c-116.832215 0-219.919463-96.214765-219.919463-219.919463V219.919463C0 96.214765 96.214765 0 219.919463 0h151.194631c41.234899 0 68.724832 27.489933 68.724832 68.724832s-27.489933 68.724832-68.724832 68.724832H219.919463C171.812081 137.449664 137.449664 171.812081 137.449664 219.919463v591.033557c0 41.234899 34.362416 82.469799 82.469799 82.469799h666.630873c41.234899 0 82.469799-34.362416 82.469798-82.469799V439.838926c0-41.234899 27.489933-68.724832 68.724832-68.724832s68.724832 27.489933 68.724833 68.724832v371.114094c-6.872483 116.832215-103.087248 213.04698-226.791947 213.04698z" p-id="2732" fill="#13227a"></path></svg>